<?xml version="1.0" standalone="no"?>
<!DOCTYPE svg PUBLIC "-//W3C//DTD SVG 20010904//EN"
 "http://www.w3.org/TR/2001/REC-SVG-20010904/DTD/svg10.dtd">
<svg version="1.0" xmlns="http://www.w3.org/2000/svg"
 width="980.000000pt" height="980.000000pt" viewBox="0 0 980.000000 980.000000"
 preserveAspectRatio="xMidYMid meet">
<metadata>
Created by potrace 1.14, written by Peter Selinger 2001-2017
</metadata>
<g transform="translate(0.000000,980.000000) scale(0.100000,-0.100000)"
fill="#000000" stroke="none">
<path d="M1325 8069 c-302 -39 -594 -181 -824 -404 -247 -238 -391 -502 -474
-865 l-22 -95 0 -1805 0 -1805 22 -95 c80 -352 216 -605 452 -841 225 -224
465 -354 768 -416 84 -17 270 -18 3653 -18 3383 0 3569 1 3653 18 302 61 543
192 768 416 235 235 375 497 451 841 l23 105 0 1795 0 1795 -23 105 c-76 346
-214 604 -451 841 -220 220 -438 340 -746 412 l-90 22 -3545 1 c-2024 1 -3575
-2 -3615 -7z m4214 -2179 c952 -542 1730 -987 1730 -990 0 -5 -3448 -1971
-3470 -1978 -5 -2 -9 756 -9 1978 0 1218 4 1980 9 1978 5 -1 788 -446 1740
-988z"/>
</g>
</svg>
